<?xml version="1.0" encoding="UTF-8" standalone="no"?>
<svg width="152px" height="152px" viewBox="0 0 152 152" version="1.1" xmlns="http://www.w3.org/2000/svg" xmlns:xlink="http://www.w3.org/1999/xlink" xmlns:sketch="http://www.bohemiancoding.com/sketch/ns">
    <!-- Generator: Sketch 3.5.1 (25234) - http://www.bohemiancoding.com/sketch -->
    <title>Logo</title>
    <desc>Created with Sketch.</desc>
    <defs></defs>
    <g id="Page-1" stroke="none" stroke-width="1" fill="none" fill-rule="evenodd" sketch:type="MSPage">
        <g id="Logo" sketch:type="MSLayerGroup" transform="translate(1.000000, 1.000000)">
            <path d="M23.5140209,50.8389262 L34.7855339,50.8389262" id="Line" stroke="#000000" stroke-linecap="square" sketch:type="MSShapeGroup"></path>
            <path d="M17.521552,57.2612751 L24.0913813,54.9819401 L34.0131547,55.0489869 L63.3092054,49.6858602 L95.4879423,49.0825089 L133.096841,48.4791575 L134.906895,116.054505 L116.806356,113.507018 L117.20859,83.1383349 C117.20859,83.1383349 111.30917,74.2891823 105.610844,71.875777 C99.9125186,69.4623717 92.5382092,65.8422638 89.4544291,66.7808142 C86.3706491,67.7193646 75.223878,70.0857438 72.053765,71.875777 C68.8836519,73.6658102 67.8678753,76.8366578 67.8678753,79.1159928 C67.8678753,81.3953278 66.8622898,93.1941902 66.8622898,93.1941902 L59.8231911,93.5964244 L60.3594956,74.5573462 C60.3594956,74.5573462 55.7337788,67.6523294 50.0354764,65.7081935 C44.3371739,63.7640576 36.158396,68.7249501 36.158396,70.9372383 C36.158396,73.1495264 35.4880212,86.1550915 35.4880212,86.1550915 L23.9572994,83.6746511 L16.6500484,84.3450376 L17.5506561,55.075724 L17.521552,57.2612751 Z" id="Path-1" stroke="#979797" stroke-width="0.5" fill="#D8D8D8" sketch:type="MSShapeGroup"></path>
            <path d="M96.2722617,91.7863705 L67.0432579,93.1271551 L67.9147498,77.2389037 L69.7918505,73.8199129 L72.9119641,71.0934515 C72.9119641,71.0934515 88.4957647,65.9763458 90.3728421,65.9763458 C92.2499196,65.9763458 100.965002,70.2668401 100.965002,70.2668401 L97.8141751,74.2221471 C97.8141751,74.2221471 97.8811986,74.2221588 97.0767301,77.7752199 C96.2722617,81.328281 96.2722617,91.7863705 96.2722617,91.7863705 Z" id="Path-2" stroke="#979797" stroke-width="0.5" fill="#4A4A4A" sketch:type="MSShapeGroup"></path>
            <path d="M60.7635954,85.057047 L35.454183,85.0570463 L35.7223469,69.839193 C35.7223469,69.839193 36.9960614,66.9565067 42.0240007,64.6771834 C47.05194,62.3978601 52.8843244,66.1520383 52.8843244,66.1520383 C52.8843244,66.1520383 61.9032746,71.6933164 60.7635954,72.8329839 C59.6239163,73.9726513 60.7635954,85.057047 60.7635954,85.057047 Z" id="Path-3" stroke="#979797" stroke-width="0.5" fill="#4A4A4A" sketch:type="MSShapeGroup"></path>
            <path d="M18.3558708,52.9578377 L24.851319,50.474284" id="Line" stroke="#000000" stroke-linecap="square" sketch:type="MSShapeGroup"></path>
            <path d="M34.2124061,50.6653266 L61.9135823,43.7877932" id="Line" stroke="#000000" stroke-linecap="square" sketch:type="MSShapeGroup"></path>
            <path d="M34.7315436,50.474284 L34.7315436,54.6772211" id="Line" stroke="#000000" stroke-linecap="square" sketch:type="MSShapeGroup"></path>
            <path d="M45.8053691,47.6086451 L45.8053691,52.3847099" id="Line" stroke="#000000" stroke-linecap="square" sketch:type="MSShapeGroup"></path>
            <path d="M61.7225397,43.9788358 L60.9583693,49.7101136" id="Line" stroke="#000000" stroke-linecap="square" sketch:type="MSShapeGroup"></path>
            <path d="M127.25015,39.5848561 L61.7225397,44.1698784" id="Line" stroke="#000000" stroke-linecap="square" sketch:type="MSShapeGroup"></path>
            <path d="M86.3670344,41.8773673 L85.7939066,48.7549007" id="Line" stroke="#000000" stroke-linecap="square" sketch:type="MSShapeGroup"></path>
            <path d="M127.823277,39.2027709 L126.294937,48.3728155" id="Line" stroke="#000000" stroke-linecap="square" sketch:type="MSShapeGroup"></path>
            <path d="M116.859973,113.458816 L117.120518,82.975966 C117.120518,82.975966 111.225849,74.8341751 109.23926,73.5640565 C107.252672,72.293938 101.097481,70.3724798 101.097481,70.3724798 C101.097481,70.3724798 97.8081916,72.9778534 97.8081916,74.0851347 C97.8081916,75.1924159 96.6032147,79.3284417 96.6032147,80.500859 C96.6032147,81.6732763 96.5380729,91.9644988 96.5380729,91.9644988 C96.5380729,91.9644988 96.5380729,113.458816 96.5380729,113.458817 C96.5380729,113.458819 116.859973,113.458816 116.859973,113.458816 Z" id="Path-13" fill="#FFFFFF" sketch:type="MSShapeGroup"></path>
            <circle id="Oval-1" stroke="#C0C0C0" stroke-width="1.5" sketch:type="MSShapeGroup" cx="75" cy="75" r="75"></circle>
        </g>
    </g>
</svg>